<?xml version="1.0" encoding="UTF-8"?>
<svg version="1.1" xmlns="http://www.w3.org/2000/svg" width="1200" height="1200">
<path d="M0 0 C0.80937012 -0.00428513 1.61874023 -0.00857025 2.45263672 -0.01298523 C4.15005566 -0.01868353 5.847499 -0.01926237 7.54492188 -0.01489258 C10.11891818 -0.01172623 12.69176963 -0.03526969 15.265625 -0.06054688 C16.92708191 -0.06281996 18.58854185 -0.06352332 20.25 -0.0625 C21.38477783 -0.07631462 21.38477783 -0.07631462 22.54248047 -0.09040833 C30.56586717 -0.02204728 37.66175537 2.02007278 43.62109375 7.55078125 C47.65015193 12.23913986 50.36512799 18.25879062 50.06920236 24.46242672 C50.0313746 25.31637879 49.99354683 26.17033086 49.95457277 27.05016026 C49.88357783 28.46091902 49.88357783 28.46091902 49.81114864 29.90017796 C49.76545623 30.90189654 49.71976382 31.90361513 49.67268679 32.93568882 C49.5714271 35.14638777 49.46769718 37.35697455 49.36187559 39.56745983 C49.12825604 44.46970026 48.90961205 49.37257755 48.69004363 54.27546432 C48.57039135 56.94649205 48.45029211 59.6174951 48.32942304 62.28846759 C46.38909125 105.19724347 44.70188333 148.10764173 43.64479065 191.04795837 C43.62376068 191.89940703 43.60273072 192.75085569 43.58106348 193.62810582 C43.124377 212.16209754 42.70396366 230.69675621 42.31831631 249.23235768 C42.1287687 258.32864282 41.93093203 267.42473929 41.72875977 276.52075195 C41.70878875 277.4255228 41.68881774 278.33029364 41.66824155 279.26248178 C41.06511646 306.42718051 40.02925125 333.54601783 38.66521208 360.68259573 C36.5663946 402.57814456 35.16971493 444.44573546 35.12394077 486.3978269 C35.12204192 488.10732406 35.1193087 489.81682049 35.11574333 491.52631498 C34.95660884 570.8395428 38.57425355 640.62324804 106.74116387 716.79399792 C135.6777675 745.73304378 168.06053419 771.80384638 202.21499723 794.33241421 C209.78528517 799.39240889 215.39455473 803.66075401 219.125 812.30078125 C219.558125 813.24953125 219.99125 814.19828125 220.4375 815.17578125 C223.00544559 826.84826119 222.43285894 837.23594708 216.7265625 847.84765625 C210.91292233 856.75245143 203.08376387 862.61773138 192.765625 865.11328125 C181.01502069 867.16578855 171.24186903 865.71815912 161.125 859.30078125 C153.92831273 853.38328788 147.37855057 846.69412235 140.81005859 840.09936523 C139.82358966 839.11261335 138.83689875 838.12608335 137.8500061 837.13975525 C135.20381222 834.49384513 132.56068578 831.84489082 129.91815138 829.19532657 C127.14399633 826.41486712 124.36695798 823.63729028 121.59024048 820.85939026 C116.34699587 815.61305304 111.10630282 810.36417485 105.86655009 805.11435038 C99.89503176 799.13160618 93.9206312 793.15174368 87.94600177 787.17210662 C75.66915292 774.88484033 63.39587991 762.59400847 51.125 750.30078125 C51.12418285 751.36150754 51.12418285 751.36150754 51.12334919 752.44366264 C51.10835734 769.6801557 51.0658136 786.91636256 50.99290943 804.15270805 C50.95831167 812.48822813 50.93291077 820.82358373 50.92944336 829.15917969 C50.92639618 836.42769382 50.90580492 843.69591462 50.86447543 850.96431553 C50.84321164 854.81007852 50.83051039 858.65542521 50.83884621 862.50124741 C50.84642883 866.12779763 50.83039548 869.75350731 50.79693985 873.37990379 C50.78488125 875.33172335 50.7972407 877.28364703 50.81056213 879.23545837 C50.70127804 887.69450105 49.38726688 894.98328129 43.24607563 901.20405388 C34.24383768 908.84071537 23.03040701 908.80811954 11.8137207 908.74682617 C9.45889493 908.73835819 7.1065381 908.76708589 4.75195312 908.79882812 C-21.93884013 908.9257296 -42.21642299 896.39472934 -61.05108571 878.14859629 C-67.05493354 872.06607346 -72.52529104 865.45768106 -78.10035205 858.98605978 C-82.568376 853.8095963 -87.07104649 848.66354974 -91.57997131 843.52272034 C-92.05772347 842.97799603 -92.53547563 842.43327173 -93.02770513 841.87204062 C-113.80731507 818.20084867 -135.20528916 795.09127919 -156.8125 772.17578125 C-157.38865842 771.56398543 -157.96481684 770.95218962 -158.55843461 770.32185453 C-232.62737998 687.73513419 -232.62737998 687.73513419 -334.15806264 654.62688255 C-344.23897363 654.45590464 -354.22270009 655.13022575 -364.25 656.11328125 C-365.13194707 656.19852901 -366.01389415 656.28377676 -366.92256689 656.37160778 C-385.27883279 658.19434525 -403.16855013 661.20838255 -421.08349609 665.56176758 C-436.63804347 669.32189745 -448.06627593 667.50262067 -461.9375 659.3359375 C-474.49635845 650.63491988 -480.26702766 639.796427 -483.27184987 625.07644463 C-484.23469162 619.04914534 -484.28858808 613.12397208 -484.25595093 607.03149414 C-484.25941758 605.651702 -484.26418883 604.27191264 -484.27013266 602.89212894 C-484.28253426 599.14258555 -484.27652243 595.39327433 -484.26717401 591.64373064 C-484.26033885 587.58366945 -484.2708867 583.52364602 -484.27911377 579.46359253 C-484.292406 571.526526 -484.28959357 563.5895449 -484.28087585 555.65247512 C-484.27408187 549.19792595 -484.27318997 542.7434006 -484.2764473 536.28884888 C-484.276907 535.3678172 -484.27736669 534.44678553 -484.27784032 533.4978438 C-484.27879957 531.62638751 -484.27977221 529.75493122 -484.2807581 527.88347495 C-484.28929878 510.36287539 -484.27949865 492.84232303 -484.263357 475.32173121 C-484.24995502 460.3104925 -484.25228349 445.2993234 -484.26611328 430.28808594 C-484.28219249 412.82725982 -484.28847493 395.366475 -484.27927649 377.90564251 C-484.27832091 376.04133289 -484.2773778 374.17702326 -484.2764473 372.31271362 C-484.27598447 371.39560059 -484.27552164 370.47848756 -484.27504479 369.53358322 C-484.27246192 363.09188754 -484.27681069 356.65021821 -484.28388596 350.20852661 C-484.29232722 342.3509529 -484.28996586 334.49346902 -484.27404372 326.6359055 C-484.26619619 322.63209675 -484.26300883 318.6284374 -484.27299118 314.62462997 C-484.28201222 310.95064579 -484.27688519 307.27694775 -484.26105852 303.60298908 C-484.25618563 301.66348243 -484.26584048 299.7239555 -484.27623022 297.78447056 C-484.1728243 282.15186351 -481.09842168 267.46470823 -470.0625 255.86328125 C-459.88405797 246.30078125 -459.88405797 246.30078125 -453.875 246.30078125 C-459.32778869 239.8348026 -465.20429267 233.85837429 -471.21313477 227.91259766 C-472.23915242 226.89342549 -473.2649121 225.87399356 -474.29043579 224.85432434 C-476.48475688 222.67324569 -478.68050345 220.49361613 -480.87729073 218.31502151 C-484.3575157 214.86284539 -487.83214645 211.40507508 -491.3056488 207.94613647 C-492.49945615 206.75747175 -493.69327048 205.56881405 -494.88709164 204.38016319 C-495.48455916 203.78528123 -496.08202669 203.19039926 -496.69759929 202.57749057 C-504.7738185 194.53719714 -512.85479775 186.50173344 -520.94604492 178.4765625 C-526.42042498 173.04679859 -531.88755323 167.60984333 -537.34670109 162.16476381 C-540.22876173 159.29073975 -543.1143652 156.42049084 -546.00900459 153.55913162 C-548.73211969 150.8672762 -551.44559386 148.16605774 -554.15225601 145.45766258 C-555.14116702 144.47142638 -556.13346556 143.48857208 -557.12955666 142.50958824 C-567.08457478 132.71805369 -574.66697925 122.35632373 -575.3125 107.98828125 C-574.90165804 95.88556185 -570.37085799 86.69494283 -561.87890625 78.3359375 C-553.96681657 71.46911472 -543.90378514 68.51660757 -533.4921875 68.984375 C-517.82447557 70.87853122 -508.41161641 80.3083576 -498.30216408 91.47345543 C-494.64206615 95.5143525 -490.94044334 99.51712535 -487.24703979 103.52755737 C-486.06954387 104.80974753 -486.06954387 104.80974753 -484.86826015 106.11784053 C-474.70084689 117.17518163 -464.32629666 128.03686356 -453.95660377 138.90416121 C-443.89868485 149.44583515 -433.91925226 160.03471281 -424.14746094 170.84375 C-377.7772346 225.11247281 -377.7772346 225.11247281 -313.95892215 250.90465641 C-279.91235226 252.08695391 -255.01334249 229.81465132 -231.47446227 208.01282461 C-209.708694 187.67911276 -189.34694038 165.92733847 -169.09067822 144.10912025 C-160.58836427 134.95761153 -151.99048863 125.90447012 -143.3190918 116.91308594 C-142.70525587 116.27653592 -142.09141994 115.6399859 -141.45898292 114.98414649 C-137.76385229 111.15366987 -134.06566541 107.32615357 -130.36687662 103.49920979 C-124.97017386 97.91382316 -119.58028178 92.32187389 -114.19364929 86.72677612 C-113.32360422 85.82320914 -113.32360422 85.82320914 -112.43598249 84.90138827 C-104.47058749 76.62517154 -96.55644685 68.30284891 -88.69055696 59.93201366 C-87.09327594 58.2322775 -85.49495975 56.53352061 -83.8963865 54.8349998 C-77.92795163 48.49310967 -77.92795163 48.49310967 -71.98372459 42.12854958 C-52.63566567 21.32757294 -30.28851288 -0.03648976 0 0 Z " fill="#CBD5DC" transform="translate(789.875,145.69921875)"/>
<path d="M0 0 C0.80937012 -0.00428513 1.61874023 -0.00857025 2.45263672 -0.01298523 C4.15005566 -0.01868353 5.847499 -0.01926237 7.54492188 -0.01489258 C10.11891818 -0.01172623 12.69176963 -0.03526969 15.265625 -0.06054688 C16.92708191 -0.06281996 18.58854185 -0.06352332 20.25 -0.0625 C21.00651855 -0.07170975 21.76303711 -0.08091949 22.54248047 -0.09040833 C30.56586717 -0.02204728 37.66175537 2.02007278 43.62109375 7.55078125 C47.73259698 12.33507592 50.25046937 18.34913109 50.2491985 24.64883488 C50.25256944 25.9920257 50.25256944 25.9920257 50.25600848 27.36235169 C50.25338146 28.34916482 50.25075445 29.33597795 50.24804783 30.35269451 C50.24920167 31.40294773 50.25035552 32.45320095 50.25154433 33.53528002 C50.25421233 37.08991638 50.24968729 40.64450835 50.24525452 44.19914246 C50.24569018 46.75910796 50.246565 49.31907341 50.24784368 51.87903863 C50.24992077 57.46308075 50.24826794 63.04711223 50.24420547 68.63115311 C50.23818144 76.93447485 50.23786865 85.23778986 50.23874746 93.54111339 C50.2400628 107.50722549 50.23671451 121.47333287 50.23073006 135.43944359 C50.22481783 149.2723817 50.22096508 163.10531785 50.21987724 176.93825722 C50.2198085 177.797586 50.21973976 178.65691479 50.21966894 179.54228384 C50.21933062 183.90618481 50.21902923 188.27008578 50.21874207 192.63398675 C50.21664033 223.56255175 50.20989928 254.49111418 50.20043945 285.41967773 C50.1912586 315.47078437 50.18417323 345.52189029 50.17993164 375.57299805 C50.17980011 376.49891813 50.17966859 377.42483822 50.17953308 378.37881649 C50.17821458 387.67708558 50.17693877 396.97535467 50.17569422 406.27362377 C50.17315784 425.21613272 50.17033659 444.15864163 50.16734314 463.10115051 C50.16720585 463.97214178 50.16706856 464.84313304 50.16692711 465.74051797 C50.15772276 523.92727348 50.14185637 582.11402753 50.125 640.30078125 C45.23850548 636.19951568 40.6269431 631.94578007 36.12603855 627.42766094 C35.45443078 626.75750661 34.78282301 626.08735229 34.0908635 625.39689025 C31.84601097 623.15568068 29.60472782 620.91093607 27.36341858 618.66618347 C25.7365422 617.04045956 24.10944793 615.41495367 22.48215479 613.78964692 C18.01489779 609.32656557 13.55076648 604.86036921 9.08714569 600.3936516 C4.7665973 596.07058566 0.44321471 591.75035498 -3.87984881 587.42980447 C-13.26467182 578.05024402 -22.64663595 568.66782811 -32.02738299 559.28419138 C-40.23288388 551.07617519 -48.43931327 542.86908874 -56.64666939 534.66292763 C-57.46319905 533.84651254 -57.46319905 533.84651254 -58.29622426 533.01360423 C-60.50585104 530.80428878 -62.71548135 528.59497687 -64.92511748 526.38567077 C-85.6474614 505.66638511 -106.3668891 484.9441854 -127.08501215 464.2206792 C-145.50482596 445.79611585 -163.92722881 427.37414501 -182.35180664 408.9543457 C-203.04639505 388.2651066 -223.73937384 367.5742598 -244.42974097 346.88079911 C-246.63317111 344.67704824 -248.83660521 342.47330131 -251.04004097 340.26955605 C-251.58259361 339.72692433 -252.12514624 339.18429262 -252.68413987 338.62521752 C-260.89072372 330.41749439 -269.0985442 322.21100926 -277.30695915 314.00511742 C-286.6320531 304.68287552 -295.95537287 295.35886338 -305.27632033 286.03247549 C-310.03648701 281.2696224 -314.79751662 276.50763971 -319.56067085 271.74777412 C-323.91288099 267.39852365 -328.26281251 263.0470082 -332.61086554 258.69360188 C-334.19186997 257.11147189 -335.77373553 255.53020191 -337.35650527 253.94983795 C-339.49227415 251.81706886 -341.62500121 249.68130589 -343.75692654 247.54469585 C-344.69968678 246.60544736 -344.69968678 246.60544736 -345.66149268 245.64722416 C-349.875 241.4149317 -349.875 241.4149317 -349.875 240.30078125 C-349.12076846 240.52571982 -348.36653692 240.7506584 -347.58944988 240.98241329 C-322.60825718 248.00412968 -293.99083939 250.60212953 -269.875 239.30078125 C-249.25868642 227.41103668 -232.12382755 209.27654521 -215.48828125 192.5234375 C-214.90643717 191.93840122 -214.3245931 191.35336493 -213.72511739 190.75060028 C-198.54066837 175.46639122 -183.75549946 159.818502 -169.09075916 144.03701723 C-160.5871657 134.89242936 -151.98942483 125.84473522 -143.3190918 116.8581543 C-142.70525587 116.221867 -142.09141994 115.58557971 -141.45898292 114.93001098 C-137.76382839 111.1010749 -134.06565371 107.27506524 -130.36687662 103.44962902 C-124.97027143 97.86656317 -119.58035226 92.27705202 -114.19364929 86.68443298 C-113.61361925 86.08232972 -113.0335892 85.48022646 -112.43598249 84.85987764 C-104.47113608 76.58805675 -96.55699797 68.27057196 -88.69055696 59.90512337 C-87.09327881 58.20661726 -85.4949638 56.50909278 -83.8963865 54.81180942 C-77.92801993 48.47473003 -77.92801993 48.47473003 -71.98372459 42.11509132 C-52.63029896 21.32496867 -30.28323902 -0.0364834 0 0 Z " fill="#CBD5DC" transform="translate(789.875,145.69921875)"/>
<path d="M0 0 C6.93737785 5.06902899 12.79436928 11.45555899 18.82719994 17.54288864 C20.40265285 19.11783218 21.97898085 20.69190075 23.55611229 22.26516342 C27.81908045 26.5227304 32.0695655 30.79256154 36.31773543 35.06488752 C40.77450343 39.54301616 45.24227995 44.01013601 49.70874596 48.4785881 C57.20589571 55.98217741 64.69567759 63.49304559 72.18022728 71.00919724 C79.86697688 78.72837559 87.5592931 86.44194424 95.25835228 94.14884567 C95.73267351 94.62365239 96.20699474 95.09845912 96.69568934 95.58765392 C98.60278736 97.49668106 100.50989389 99.40569971 102.41701905 101.31469973 C110.22018265 109.12586843 118.01871599 116.94165916 125.81669068 124.75800753 C127.58854487 126.53390491 129.36055062 128.30965109 131.13270736 130.08524656 C136.18613791 135.14849504 141.23718439 140.21409614 146.28428078 145.28365898 C147.81082417 146.8162971 149.33818408 148.34812245 150.866436 149.87905693 C152.95895914 151.97559656 155.0483863 154.07517501 157.13706017 156.17554855 C157.73629175 156.77459578 158.33552334 157.373643 158.95291346 157.99084318 C161.8439021 160.90449738 164.62340657 163.86979068 167.29790819 166.98409134 C170.71839595 170.90785651 174.29798058 174.62367202 177.98473072 178.29623127 C178.98601465 179.29969536 178.98601465 179.29969536 180.00752655 180.32343146 C182.23383495 182.55337487 184.46366837 184.77975851 186.69351768 187.00616074 C188.31099084 188.62478669 189.92824602 190.24363047 191.54530245 191.86267275 C195.98121071 196.30275241 200.42022875 200.73971154 204.85977209 205.17615616 C209.15805697 209.47241079 213.45399263 213.77101208 217.75000621 218.06953766 C227.0768356 227.4016278 236.40651837 236.73086114 245.73742342 246.05887595 C253.90311545 254.22205112 262.06787581 262.38615669 270.23171234 270.55118752 C270.7735181 271.09306966 271.31532387 271.63495181 271.87354798 272.19325463 C274.07298649 274.39300448 276.27242147 276.59275786 278.47185064 278.79251705 C299.09863776 299.42236226 319.7283384 320.04929178 340.35934633 340.67491584 C358.6834378 358.99426181 377.00494247 377.31619111 395.32427025 395.64030075 C415.91250001 416.23388668 436.50234642 436.82585403 457.0947991 457.41521734 C459.2905153 459.61061283 461.48622757 461.80601226 463.68193817 464.00141335 C464.22256827 464.54196437 464.76319837 465.08251539 465.32021121 465.63944675 C473.47951194 473.79761065 481.63757932 481.95700649 489.79504776 490.11700249 C499.07168 499.39649474 508.35009888 508.67419641 517.63087266 517.94954664 C522.36624115 522.68223901 527.10075767 527.4157754 531.8331356 532.15145874 C536.16543163 536.48673495 540.50003037 540.81969485 544.83647532 545.1508209 C546.40456377 546.71779255 547.97181064 548.28560692 549.53812777 549.85434914 C551.66874857 551.98801544 553.80243337 554.11857132 555.93689442 556.24839497 C556.54278079 556.8566225 557.14866716 557.46485004 557.77291372 558.09150872 C561.45126391 561.75392901 565.25278735 565.22116751 569.19046452 568.60355736 C572.20695062 571.24582128 575.03366206 574.07124895 577.8677578 576.90624619 C578.50739397 577.54220567 579.14703014 578.17816515 579.80604923 578.83339614 C581.92538995 580.94181965 584.04123112 583.05371804 586.15703392 585.16569138 C587.68522337 586.68760747 589.21359955 588.20933609 590.74214745 589.73089218 C595.73801315 594.70583112 600.72864551 599.68600335 605.71904564 604.6664238 C607.44250187 606.3858292 609.16599116 608.10520147 610.88951302 609.82454109 C618.98333825 617.89934524 627.0747714 625.97653699 635.16326535 634.05668145 C644.48387656 643.36751041 653.81271667 652.66999199 663.14859593 661.96551114 C670.37791512 669.16465153 677.59952322 676.37146904 684.81542385 683.58405894 C689.119843 687.88613113 693.42748334 692.18485509 697.74331093 696.47548485 C701.80196066 700.51081607 705.85093588 704.55561138 709.89280891 708.60774422 C711.3735703 710.08900002 712.85773038 711.56686766 714.34560204 713.04098129 C726.81267627 725.39923664 735.79127439 735.8451512 736.02373314 754.20939255 C735.15916605 765.06451267 730.37135397 773.86913204 722.46123314 781.23283005 C713.94336274 788.13994931 703.95687889 790.62419755 693.03545189 790.05314255 C676.42160599 787.60923877 666.03607434 775.37663317 654.72807884 764.04313278 C653.74310538 763.05951867 652.75792028 762.07611647 651.77254295 761.09290695 C649.12786615 758.45273985 646.48630292 755.80947896 643.84547639 753.1654613 C641.06494795 750.38237695 638.28195301 747.60176064 635.49936485 744.82073593 C630.83178062 740.15496343 626.16629159 735.48710368 621.50200462 730.81803513 C616.12678344 725.43736686 610.747961 720.06031881 605.36726695 714.68512386 C600.72565396 710.04806284 596.08600993 705.40903852 591.44797772 700.76839596 C588.68734128 698.00620901 585.92605392 695.24468186 583.16297913 692.48493385 C580.56607752 689.89094161 577.97167378 687.29447574 575.37909889 684.69615936 C573.98544702 683.30057613 572.58936294 681.90742303 571.19318199 680.51436996 C570.34818138 679.66654953 569.50318077 678.8187291 568.63257408 677.94521713 C567.90720609 677.21947211 567.18183809 676.49372709 566.43448925 675.7459898 C564.52333824 673.73507697 562.7132977 671.69802303 560.90866005 669.59431946 C556.93743627 665.04708387 552.72824654 660.7751279 548.45414639 656.51396465 C547.19200872 655.24964682 547.19200872 655.24964682 545.90437332 653.95978722 C543.57890323 651.63130735 541.25122387 649.3050632 538.92257315 646.979765 C536.3856756 644.44541295 533.85168845 641.90815361 531.31732219 639.37127072 C526.87856896 634.92891088 522.43796478 630.48840806 517.9961319 626.04912758 C511.39092803 619.44770892 504.78858827 612.84343127 498.18680483 606.23859221 C486.39537024 594.44189312 474.60107743 582.64805496 462.80556609 570.85543238 C452.48311809 560.53549996 442.16160006 550.21463858 431.84100723 539.89285088 C431.15640775 539.20817501 430.47180827 538.52349914 429.76646335 537.81807553 C426.98744927 535.0387501 424.20843871 532.25942115 421.42943397 529.48008638 C395.36040135 503.40799478 369.28845339 477.33882023 343.21520018 451.27094949 C320.05086459 428.1113595 296.88911548 404.94918576 273.72954369 381.784832 C247.70932881 355.75926245 221.68749899 329.73530937 195.66306156 303.71396214 C192.88879613 300.94001742 190.11453464 298.16606877 187.34027481 295.39211845 C186.65718021 294.70910293 185.97408561 294.02608741 185.27029117 293.32237444 C174.95503817 283.0082589 164.64101957 272.69291006 154.32759857 262.37696266 C142.60074279 250.64724856 130.87210345 238.91932113 119.14110512 227.19374996 C112.57579942 220.63138142 106.01187093 214.06764244 99.44992032 207.50191898 C95.06646478 203.11622116 90.68119318 198.73234486 86.29444103 194.34994446 C83.79526335 191.85314514 81.29687431 189.35557066 78.80068547 186.85578292 C76.10914189 184.16120416 73.41454516 181.46971557 70.71916103 178.7789793 C69.94802708 178.00550418 69.17689313 177.23202907 68.38239148 176.43511531 C64.28977448 172.35661649 60.1101978 168.44458803 55.7241931 164.68241908 C53.41559479 162.6825916 51.24323104 160.56398928 49.07790184 158.41073227 C48.18367516 157.52366089 47.28944847 156.63658951 46.36812401 155.72263718 C45.40544674 154.76279875 44.44283285 153.80289676 43.48027611 152.84293747 C42.44468778 151.81362904 41.40891591 150.78450526 40.3729763 149.75555038 C37.00043306 146.40385309 33.63304692 143.04699895 30.26592064 139.6898613 C29.09966311 138.52765739 27.9333739 137.36548527 26.7670536 136.20334435 C21.28952461 130.74481724 15.81437668 125.28391563 10.34216011 119.82006282 C4.04956416 113.53724728 -2.25123465 107.26281022 -8.55908883 100.99531478 C-13.45299693 96.13163714 -18.33913654 91.26024124 -23.21960533 86.3830784 C-26.12675052 83.47827386 -29.03704783 80.57681018 -31.95564079 77.6835041 C-34.70110992 74.96144539 -37.436744 72.22986302 -40.16541481 69.4909687 C-41.16241186 68.49347948 -42.16277558 67.49934086 -43.16690636 66.5090332 C-53.13219943 56.67319382 -60.76621137 46.31022443 -61.41376686 31.89689255 C-61.0029249 19.79417315 -56.47212485 10.60355413 -47.98017311 2.2445488 C-33.95441164 -9.92826804 -15.19784887 -9.33922943 0 0 Z " fill="#DC2E44" transform="translate(275.9762668609619,221.79060745239258)"/>
<path d="M0 0 C1.89280379 1.10312683 3.61557936 2.2543 5.35694337 3.58088785 C5.99191523 4.06329111 6.62688708 4.54569437 7.28110051 5.04271591 C7.96982338 5.57283568 8.65854625 6.10295545 9.36813951 6.64913946 C10.47587299 7.49873567 10.47587299 7.49873567 11.60598493 8.36549544 C38.92170326 29.40639588 65.14419208 51.63793569 90.68124628 74.78919679 C92.29905802 76.2552149 93.9190318 77.71881648 95.53915811 79.18227583 C150.32436833 128.74708078 190.36289962 174.73730496 194.20837522 250.97716266 C195.16856613 271.67166187 194.49157311 292.27832417 193.30362535 312.9468537 C193.22655851 314.3240055 193.14959144 315.70116288 193.07272363 317.07832581 C191.08297777 352.32066853 187.432902 387.30842557 182.05362535 422.1968537 C160.83394279 422.29058924 139.61429472 422.36097539 118.39444661 422.40410239 C108.54012754 422.42466556 98.68593764 422.45266572 88.83170152 422.49861151 C80.23565585 422.53867159 71.6397038 422.56433181 63.04356736 422.57320768 C58.49838141 422.5783902 53.95346313 422.59043832 49.40836358 422.61977392 C45.11637567 422.64724723 40.8247616 422.65523545 36.5326941 422.64928442 C34.97079575 422.65037059 33.40888278 422.65813227 31.8470614 422.6736756 C13.34516231 422.84852635 -4.3712422 419.5002317 -18.38387465 406.5093537 C-30.23181345 393.75743256 -32.41735136 377.73295756 -32.32732558 360.92756659 C-32.33079223 359.54777445 -32.33556349 358.16798509 -32.34150732 356.78820139 C-32.35390891 353.038658 -32.34789708 349.28934678 -32.33854866 345.53980309 C-32.33171351 341.4797419 -32.34226136 337.41971847 -32.35048842 333.35966498 C-32.36378065 325.42259845 -32.36096822 317.48561735 -32.3522505 309.54854757 C-32.34545653 303.09399839 -32.34456462 296.63947305 -32.34782195 290.18492132 C-32.34828165 289.26388965 -32.34874135 288.34285797 -32.34921498 287.39391625 C-32.35017422 285.52245996 -32.35114686 283.65100367 -32.35213275 281.77954739 C-32.36067343 264.25894783 -32.3508733 246.73839547 -32.33473165 229.21780366 C-32.32132968 214.20656494 -32.32365814 199.19539584 -32.33748794 184.18415838 C-32.35356715 166.72333227 -32.35984958 149.26254745 -32.35065114 131.80171496 C-32.34969557 129.93740533 -32.34875245 128.07309571 -32.34782195 126.20878607 C-32.34735912 125.29167304 -32.3468963 124.37456001 -32.34641945 123.42965567 C-32.34383658 116.98795999 -32.34818535 110.54629066 -32.35526061 104.10459906 C-32.36370187 96.24702535 -32.36134051 88.38954146 -32.34541838 80.53197795 C-32.33757085 76.52816919 -32.33438348 72.52450984 -32.34436584 68.52070242 C-32.35338687 64.84671824 -32.34825985 61.1730202 -32.33243318 57.49906152 C-32.32756028 55.55955488 -32.33721513 53.62002794 -32.34760487 51.68054301 C-32.24462565 36.11244325 -29.18116088 21.43761841 -18.25887465 9.8218537 C-5.37942476 -2.21974998 -5.37942476 -2.21974998 0 0 Z " fill="#8898A5" transform="translate(337.9463746547699,391.80314630270004)"/>
<path d="M0 0 C26.4 0 52.8 0 80 0 C80 26.4 80 52.8 80 80 C72.12469977 73.24974266 72.12469977 73.24974266 69.38685608 70.51383972 C68.45107224 69.58228561 68.45107224 69.58228561 67.49638367 68.63191223 C66.5102282 67.64272041 66.5102282 67.64272041 65.50415039 66.63354492 C64.43460114 65.56662415 64.43460114 65.56662415 63.34344482 64.47814941 C61.00900907 62.1480827 58.67821163 59.81441616 56.34765625 57.48046875 C54.72112902 55.85461553 53.0944534 54.22891076 51.46763611 52.60334778 C48.07111624 49.20829779 44.67640106 45.81145632 41.28295898 42.41333008 C36.92254791 38.0471948 32.55762635 33.68560058 28.19136906 29.32531261 C24.83799505 25.97554017 21.48699159 22.62340452 18.13671684 19.27053261 C16.52700747 17.66015425 14.91654971 16.05052363 13.30534554 14.44164085 C11.06450568 12.20332381 8.82686781 9.96185558 6.59008789 7.71948242 C5.91848129 7.04990005 5.24687469 6.38031769 4.55491638 5.69044495 C0 1.11426768 0 1.11426768 0 0 Z " fill="#8898A5" transform="translate(440,386)"/>
</svg>
