<?xml version="1.0" encoding="UTF-8"?>
<svg version="1.1" xmlns="http://www.w3.org/2000/svg" width="1200" height="1200">
<path d="M0 0 C2.44452963 0.00855928 4.88675115 -0.02044519 7.33105469 -0.05200195 C26.57546686 -0.14067857 26.57546686 -0.14067857 34.00097656 6.35913086 C40.64389922 13.31310533 42.93769017 21.08973972 42.94423085 30.58154929 C42.94750305 31.8255729 42.95077524 33.06959652 42.95414659 34.35131782 C42.95273656 35.73178901 42.95123456 37.1122601 42.94965076 38.49273109 C42.95160394 39.96530927 42.95399288 41.43788692 42.95677873 42.91046375 C42.96318617 46.97590021 42.96333977 51.04131692 42.96250133 55.10675746 C42.96267068 59.52261231 42.96857515 63.93846004 42.97374219 68.35431135 C42.98307584 77.12108884 42.98699152 85.88786127 42.98926115 94.65464311 C42.9922212 105.15198634 43.0009174 115.64932285 43.00967543 126.14666256 C43.03052807 151.52001737 43.04099059 176.89337336 43.04980504 202.26673475 C43.05401005 214.26647197 43.05923221 226.26620868 43.06448957 238.26594548 C43.08237973 279.33039553 43.09737677 320.39484572 43.10480976 361.45929909 C43.10528452 364.03772142 43.10576041 366.61614376 43.10623742 369.19456609 C43.10659199 371.11258963 43.10659199 371.11258963 43.10695371 373.06936112 C43.10815493 379.54794974 43.10937037 386.02653835 43.1105957 392.50512695 C43.11083585 393.79082857 43.111076 395.07653019 43.11132343 396.40119247 C43.11921875 438.09946299 43.14265541 479.79770509 43.17515165 521.4959632 C43.20943416 565.56664843 43.2291594 609.63731702 43.232454 653.7080158 C43.23287155 658.54407653 43.23335112 663.38013725 43.23387718 668.21619797 C43.23400037 669.40699953 43.23412357 670.59780109 43.23425049 671.82468754 C43.23658439 691.00378288 43.25225481 710.18284526 43.27271903 729.36192884 C43.29295493 748.63244816 43.2984649 767.90292781 43.28894839 787.17345579 C43.28372487 798.626742 43.2896511 810.0798963 43.31148307 821.53316358 C43.32496231 829.18146189 43.32393963 836.8296691 43.31108111 844.47796826 C43.30416537 848.83729208 43.30357998 853.19636319 43.3206412 857.55566473 C43.33604628 861.52411605 43.33292293 865.49211154 43.31523092 869.46054938 C43.31208972 870.88471451 43.31560339 872.30891451 43.32672266 873.7330397 C43.39324213 882.84891839 43.18069604 892.42664048 36.9025683 899.64554987 C29.41811122 906.73938754 21.22042485 908.58780764 11.12792969 908.64916992 C10.38897461 908.65487 9.65001953 908.66057007 8.88867188 908.66644287 C7.32537248 908.67586381 5.76205348 908.68241526 4.19873047 908.6862793 C1.85053934 908.69590106 -0.49674359 908.7269156 -2.84472656 908.75854492 C-14.95583541 908.84587482 -26.23424864 907.61835176 -37.12207031 901.88354492 C-37.70923828 901.59930664 -38.29640625 901.31506836 -38.90136719 901.0222168 C-41.06030745 899.92135988 -43.10957515 898.69936059 -45.18457031 897.44604492 C-46.5833512 896.60425989 -46.5833512 896.60425989 -48.01039028 895.74546909 C-59.50666284 888.19771643 -67.88741956 878.21665924 -76.82023662 867.86951251 C-80.60951579 863.49630895 -84.44617799 859.16421927 -88.27467467 854.82536801 C-89.29238555 853.67182249 -90.30965897 852.51789089 -91.32650839 851.36358593 C-113.30325218 826.41860507 -135.93205141 802.0614668 -158.74707031 777.88354492 C-159.35509105 777.23863497 -159.9631118 776.59372503 -160.58955741 775.92927235 C-237.31942576 689.62263 -237.31942576 689.62263 -342.36833769 653.95062453 C-352.4465091 653.76852862 -362.41556705 654.47690839 -372.43457031 655.50854492 C-373.31482581 655.59753603 -374.1950813 655.68652713 -375.1020112 655.77821493 C-390.55771717 657.38071118 -405.93237628 659.5571663 -421.00895691 663.3734436 C-421.68752528 663.54432977 -422.36609366 663.71521594 -423.06522471 663.89128047 C-426.19487764 664.69022717 -429.29941078 665.53569753 -432.39472294 666.45946407 C-444.92226854 669.93607394 -456.85840078 666.38263094 -468.18457031 660.44604492 C-480.00028873 652.89506237 -487.4318326 642.63697347 -490.7582562 628.97877157 C-491.67371425 623.54004711 -491.46503556 618.01170963 -491.45199585 612.51191711 C-491.4557361 611.0953439 -491.46033911 609.67877274 -491.46572649 608.26220483 C-491.47792578 604.38321236 -491.47769966 600.50430635 -491.47533774 596.6252991 C-491.47492879 592.43631777 -491.48597621 588.24736386 -491.49545288 584.05839539 C-491.51204733 575.85616679 -491.51756174 567.65396694 -491.51867764 559.45172296 C-491.51962891 552.78201696 -491.52374318 546.11232042 -491.53007889 539.44261742 C-491.54768757 520.51962165 -491.55691842 501.59664854 -491.55541794 482.67364452 C-491.55533803 481.65405667 -491.55525812 480.63446882 -491.55517578 479.58398438 C-491.55505314 478.05272822 -491.55505314 478.05272822 -491.55492802 476.49053761 C-491.55411537 459.95194819 -491.5732486 443.41344991 -491.60145251 426.87488685 C-491.63020464 409.88030782 -491.64399151 392.88577321 -491.64226496 375.89116925 C-491.64160183 366.35521069 -491.64706021 356.81934764 -491.66862106 347.28341103 C-491.68686358 339.16324799 -491.69115507 331.04322376 -491.67760222 322.92304907 C-491.67108785 318.7836661 -491.67089961 314.6445492 -491.68830872 310.5051918 C-491.70411292 306.70821755 -491.70110177 302.91171871 -491.68374045 299.11475553 C-491.67925122 297.10660819 -491.69427003 295.09844567 -491.71021974 293.09035665 C-491.60431511 279.05157622 -487.63107688 266.26158498 -478.05957031 255.75854492 C-468.59174164 246.95512528 -455.93172834 241.94870056 -443.18457031 240.44604492 C-440.46553516 240.91911507 -440.46553516 240.91911507 -437.63471985 241.76150513 C-436.54671554 242.06876022 -435.45871122 242.37601532 -434.33773708 242.69258118 C-433.15064176 243.03033066 -431.96354643 243.36808014 -430.74047852 243.71606445 C-411.88698043 248.70665256 -392.89756208 251.6705135 -373.49707031 253.57104492 C-372.1640361 253.7050256 -372.1640361 253.7050256 -370.8040719 253.84171295 C-326.13368318 258.17963243 -286.86799491 249.65988423 -251.79285133 221.14098668 C-218.2249288 193.50166063 -187.90421356 162.04603929 -158.12207031 130.44604492 C-157.50954424 129.79675982 -156.89701818 129.14747472 -156.26593071 128.47851431 C-133.41972096 104.25740477 -110.815644 79.81282863 -88.80654907 54.82687378 C-87.79512418 53.68028772 -86.78367007 52.53372743 -85.77218574 51.3871938 C-80.08605418 44.93838108 -80.08605418 44.93838108 -74.44419062 38.45087647 C-56.81435263 18.03790378 -56.81435263 18.03790378 -45.18457031 11.44604492 C-44.39664062 10.98072357 -43.60871092 10.51540222 -42.79690456 10.03598022 C-40.95554169 8.97088938 -39.09329199 8.00888003 -37.18457031 7.07104492 C-36.58902344 6.75522461 -35.99347656 6.4394043 -35.37988281 6.11401367 C-24.1706718 0.50940817 -12.27521796 -0.06545136 0 0 Z " fill="#CBD5DC" transform="translate(611.1845703125,145.553955078125)"/>
<path d="M0 0 C0 141.24 0 282.48 0 428 C-183.23566879 428 -183.23566879 428 -200.93359375 411.16015625 C-211.47498724 400.07469084 -213.30216359 386.7174308 -213.26742554 372.06587219 C-213.27116579 370.64929897 -213.2757688 369.23272782 -213.28115618 367.8161599 C-213.29335547 363.93716744 -213.29312935 360.05826143 -213.29076743 356.17925417 C-213.29035848 351.99027284 -213.3014059 347.80131894 -213.31088257 343.61235046 C-213.32747702 335.41012187 -213.33299142 327.20792202 -213.33410732 319.00567804 C-213.3350586 312.33597204 -213.33917287 305.6662755 -213.34550858 298.99657249 C-213.36311726 280.07357673 -213.37234811 261.15060362 -213.37084763 242.2275996 C-213.37076772 241.20801175 -213.3706878 240.1884239 -213.37060547 239.13793945 C-213.37048283 237.6066833 -213.37048283 237.6066833 -213.37035771 236.04449268 C-213.36954506 219.50590327 -213.38867829 202.96740499 -213.4168822 186.42884193 C-213.44563433 169.4342629 -213.45942119 152.43972829 -213.45769465 135.44512433 C-213.45703152 125.90916576 -213.4624899 116.37330272 -213.48405075 106.8373661 C-213.50229327 98.71720307 -213.50658476 90.59717884 -213.4930319 82.47700415 C-213.48651753 78.33762118 -213.4863293 74.19850428 -213.5037384 70.05914688 C-213.51954261 66.26217263 -213.51653146 62.46567379 -213.49917014 58.66871061 C-213.49468091 56.66056327 -213.50969972 54.65240074 -213.52564943 52.64431173 C-213.41974479 38.6055313 -209.44650657 25.81554006 -199.875 15.3125 C-150.94015832 -30.18831771 -66.82023004 0 0 0 Z " fill="#8799A5" transform="translate(333,386)"/>
<path d="M0 0 C5.75223764 4.07099908 10.80841808 9.05514693 15.94140625 13.86328125 C18.73357957 16.47817372 21.57284789 19.0343042 24.43359375 21.57421875 C31.08897641 27.55004046 37.35680034 33.80433435 43.17578125 40.59765625 C45.25336594 42.96626447 47.38973086 45.2688857 49.54125977 47.57006836 C55.05317687 53.47210415 60.22872051 59.50491205 65.18359375 65.88671875 C66.14829212 67.07669573 67.11457117 68.26539222 68.08203125 69.453125 C85.22462045 90.71825775 99.94358261 114.03187109 113.18359375 137.88671875 C113.85841797 139.09183105 113.85841797 139.09183105 114.546875 140.32128906 C152.85236564 209.14965932 171.45973747 289.22572447 171.37109375 367.69921875 C171.3704895 368.69116241 171.36988525 369.68310608 171.3692627 370.70510864 C171.34318985 386.51781449 170.93298559 402.15663006 169.18359375 417.88671875 C169.06000488 419.02898926 168.93641602 420.17125977 168.80908203 421.34814453 C158.32125101 515.20469782 120.82756861 604.37116643 60.18359375 676.88671875 C59.52302979 677.6768335 59.52302979 677.6768335 58.84912109 678.48291016 C48.375511 690.96745339 37.30194222 702.83684562 25.80859375 714.38671875 C25.16696289 715.03302246 24.52533203 715.67932617 23.86425781 716.34521484 C19.46806255 720.72665777 14.89739983 724.85055321 10.18359375 728.88671875 C9.21292969 729.7271875 8.24226562 730.56765625 7.2421875 731.43359375 C-0.94641207 738.31641067 -6.72469428 741.54659505 -17.6015625 741.22265625 C-26.08234184 740.33645088 -30.72565179 736.54769616 -36.1875 730.203125 C-40.82629448 723.60647002 -40.49420945 716.69014539 -39.81640625 708.88671875 C-37.51891507 699.08602853 -29.42795257 693.20558152 -22.14453125 686.92578125 C-11.77552192 677.84419926 -1.58783844 668.4381155 7.38671875 657.9609375 C9.35821805 655.68514157 11.3949377 653.47749208 13.43359375 651.26171875 C18.49042445 645.64872224 23.14035243 639.75951852 27.73779297 633.76953125 C28.69963064 632.51696588 29.66479273 631.26694613 30.63330078 630.01953125 C48.52400303 606.95482116 63.03989618 581.8939556 76.18359375 555.88671875 C76.75207031 554.76595947 76.75207031 554.76595947 77.33203125 553.62255859 C116.01262545 476.64308658 126.9033078 385.45192007 96.71875 230.99609375 C82.28963337 188.40023506 61.4904989 147.67280703 34.18359375 111.88671875 C33.70583496 111.25878418 33.22807617 110.63084961 32.73583984 109.98388672 C19.81640115 93.08923613 5.73950614 77.25491114 -9.29589844 62.22192383 C-10.82127338 60.69434459 -12.33841297 59.15888293 -13.85546875 57.62304688 C-19.48292931 51.96579461 -25.20674706 46.75653922 -31.52685547 41.86743164 C-36.3707761 37.67690828 -39.50600419 32.29670713 -40.08984375 25.8828125 C-40.35101549 16.73175656 -39.34816323 10.06744093 -33.20703125 3.046875 C-23.79740483 -5.7800452 -10.89897653 -6.68001787 0 0 Z " fill="#8899A6" transform="translate(907.81640625,233.11328125)"/>
<path d="M0 0 C4.93145442 3.71690067 9.45685336 7.82390456 14 12 C15.23533742 13.11365814 16.47101425 14.2269399 17.70703125 15.33984375 C30.47618307 26.9472505 42.33266524 39.42867211 53 53 C53.82371094 54.01707031 54.64742187 55.03414063 55.49609375 56.08203125 C82.65124203 89.76601304 103.21568928 128.03401812 117 169 C117.4962085 170.47194824 117.4962085 170.47194824 118.00244141 171.97363281 C147.1539905 259.86070715 141.54738219 358.80574433 96.94140625 455.26953125 C86.66013325 475.75268517 74.84151364 495.21446555 60.50244141 513.11230469 C59.03450309 514.95664967 57.59710118 516.82079462 56.16796875 518.6953125 C50.32051331 526.33399274 44.07247398 533.44749659 37.46435547 540.43408203 C36.03954101 541.95771656 34.64252386 543.50196191 33.25390625 545.05859375 C26.58441499 552.52218718 19.4981151 559.37164022 12 566 C11.13544189 566.76570312 11.13544189 566.76570312 10.25341797 567.546875 C8.53174278 569.06237013 6.79994624 570.56512538 5.0625 572.0625 C4.54316895 572.51568604 4.02383789 572.96887207 3.48876953 573.43579102 C-3.44853587 579.32412222 -9.96495124 581.60233658 -19 581 C-26.78837665 579.47039089 -32.64105644 575.5627268 -37.3515625 569.1640625 C-41.04536544 563.07858859 -41.94734408 556.82363271 -40.57421875 549.83203125 C-36.88906745 536.69661464 -23.035419 527.17898593 -13.046875 518.6015625 C-8.84682161 514.93669597 -4.99467532 511.00531209 -1.1875 506.9375 C-0.14493042 505.8249585 -0.14493042 505.8249585 0.91870117 504.68994141 C6.53917784 498.62452928 11.76357797 492.35052545 16.70996094 485.72705078 C18.02689832 483.96398964 19.36063929 482.21450342 20.6953125 480.46484375 C50.91025222 440.46766225 70.88245618 393.83101036 79.8125 344.5625 C80.00739014 343.48726074 80.20228027 342.41202148 80.40307617 341.30419922 C83.41847894 323.67957535 84.37823258 306.2993631 84.3125 288.4375 C84.31034485 287.38074066 84.3081897 286.32398132 84.30596924 285.23519897 C84.25389246 269.30226254 83.81676681 253.72125376 81 238 C80.80132324 236.86755859 80.60264648 235.73511719 80.39794922 234.56835938 C74.36126947 201.0885265 63.94882013 169.09211346 48 139 C47.15501953 137.29070312 47.15501953 137.29070312 46.29296875 135.546875 C37.56615711 118.28337833 26.25179543 101.95169025 14 87 C13.58508301 86.49033691 13.17016602 85.98067383 12.74267578 85.45556641 C-0.33092557 69.4581878 -14.58699642 54.18141291 -30.6875 41.1875 C-35.56835212 36.90213311 -37.56754993 32.28250193 -38.41015625 25.88671875 C-38.80460382 17.2796706 -37.05891913 10.75387054 -31.42578125 4.15625 C-22.94596852 -3.908467 -10.25426164 -5.57498261 0 0 Z " fill="#8899A6" transform="translate(836,312)"/>
<path d="M0 0 C5.53314742 3.68876495 10.43585483 8.1180006 15.35546875 12.5703125 C15.96181152 13.11494141 16.5681543 13.65957031 17.19287109 14.22070312 C23.99570864 20.35092862 30.49912326 26.51750933 36.35546875 33.5703125 C37.23965576 34.57255173 38.12663969 35.5723269 39.015625 36.5703125 C50.72065071 49.79789623 60.7123529 64.17544047 69.35546875 79.5703125 C69.78182617 80.32199707 70.20818359 81.07368164 70.64746094 81.84814453 C86.63262006 110.29114005 96.51015105 141.36505873 101.35546875 173.5703125 C101.4726123 174.2912207 101.58975586 175.01212891 101.71044922 175.75488281 C112.15222255 241.63269791 93.27387674 313.03853654 54.65136719 366.80664062 C48.42633679 375.30612255 41.70989072 383.31405452 34.609375 391.09375 C33.08124915 392.77283455 31.56861017 394.46612073 30.0703125 396.171875 C25.45664132 401.41072632 20.72060192 406.11341304 15.35546875 410.5703125 C14.37964844 411.41078125 13.40382813 412.25125 12.3984375 413.1171875 C11.34288487 414.01874101 10.2868958 414.91978378 9.23046875 415.8203125 C8.25851562 416.65046875 7.2865625 417.480625 6.28515625 418.3359375 C-0.34404273 423.39180659 -6.3798504 425.11225879 -14.64453125 424.5703125 C-23.17022497 423.05184744 -29.01435649 419.41054551 -34.21484375 412.4765625 C-38.65456524 405.67744615 -39.37463161 399.6443635 -38.64453125 391.5703125 C-36.42950053 381.51287572 -29.46007024 375.83703959 -21.95703125 369.3828125 C-9.95967974 358.980347 0.13747515 347.47853577 9.35546875 334.5703125 C9.814375 333.9294873 10.27328125 333.28866211 10.74609375 332.62841797 C42.63662803 287.61821169 54.7501008 229.84015216 45.54296875 175.65234375 C37.80732867 132.92293528 18.39076439 94.82904177 -11.64453125 63.5703125 C-12.13211914 63.06081055 -12.61970703 62.55130859 -13.12207031 62.02636719 C-18.35370426 56.5902394 -23.57309387 51.53468883 -29.58203125 46.9453125 C-35.72326423 42.08017988 -39.0688571 36.23241426 -40.64453125 28.5703125 C-41.2603315 19.48725886 -38.97976123 12.40919072 -33.25 5.29296875 C-25.05772355 -3.49728409 -10.61185395 -5.52821536 0 0 Z " fill="#8899A6" transform="translate(763.64453125,388.4296875)"/>
</svg>
